<svg viewBox="0 0 1180 1020" xmlns="http://www.w3.org/2000/svg" font-family="Georgia, STKaiti, Songti SC, serif">
<rect width="1180" height="1020" fill="#fbf7ef"/>
<text x="590.0" y="42" text-anchor="middle" font-size="28" fill="#2a2018" font-weight="bold">ĐỒ THIÊN CƠ — đồng hồ một NGUYÊN</text>
<text x="590.0" y="70" text-anchor="middle" font-size="14.5" fill="#7a5a2a">一元 = 129.600 năm = 12 hội · 12 bích quái = câu chuyện trời-đất-người: sinh → đỉnh → suy → đóng → tái sinh</text>
<circle cx="590.0" cy="520" r="392" fill="none" stroke="#e0d5b8"/>
<circle cx="590.0" cy="520" r="242" fill="none" stroke="#e0d5b8"/>
<text x="240.0" y="520" text-anchor="middle" font-size="13" fill="#3f7d54" font-weight="bold" transform="rotate(-90 240.0 520)">DƯƠNG THĂNG (sinh trưởng)</text>
<text x="944.0" y="520" text-anchor="middle" font-size="13" fill="#5a4a6a" font-weight="bold" transform="rotate(90 944.0 520)">ÂM GIÁNG (thâu tàng)</text>
<circle cx="430" cy="797" r="46" fill="#3f7d54" fill-opacity="0.09" stroke="#3f7d54" stroke-opacity="0.45" stroke-width="1"/>
<rect x="415" y="811.1281292110202" width="30" height="4.5" fill="#5a3410"/>
<rect x="415" y="805.1281292110202" width="12" height="4.5" fill="#5a3410"/><rect x="432" y="805.1281292110202" width="12" height="4.5" fill="#5a3410"/>
<rect x="415" y="799.1281292110202" width="12" height="4.5" fill="#5a3410"/><rect x="432" y="799.1281292110202" width="12" height="4.5" fill="#5a3410"/>
<rect x="415" y="793.1281292110202" width="12" height="4.5" fill="#5a3410"/><rect x="432" y="793.1281292110202" width="12" height="4.5" fill="#5a3410"/>
<rect x="415" y="787.1281292110202" width="12" height="4.5" fill="#5a3410"/><rect x="432" y="787.1281292110202" width="12" height="4.5" fill="#5a3410"/>
<rect x="415" y="781.1281292110202" width="12" height="4.5" fill="#5a3410"/><rect x="432" y="781.1281292110202" width="12" height="4.5" fill="#5a3410"/>
<text x="430" y="827" text-anchor="middle" font-size="13" fill="#3f7d54" font-weight="bold">復 Phục</text>
<text x="404" y="838" text-anchor="end" font-size="12" fill="#3f7d54" font-weight="bold">hội Tý</text>
<text x="404" y="853" text-anchor="end" font-size="9.5" fill="#888">67017TCN–56218TCN</text>
<text x="404" y="867" text-anchor="end" font-size="10" fill="#777" font-weight="normal">天开 · trời mở</text>
<circle cx="313" cy="680" r="46" fill="#3f7d54" fill-opacity="0.09" stroke="#3f7d54" stroke-opacity="0.45" stroke-width="1"/>
<rect x="298" y="694.0" width="30" height="4.5" fill="#5a3410"/>
<rect x="298" y="688.0" width="30" height="4.5" fill="#5a3410"/>
<rect x="298" y="682.0" width="12" height="4.5" fill="#5a3410"/><rect x="315" y="682.0" width="12" height="4.5" fill="#5a3410"/>
<rect x="298" y="676.0" width="12" height="4.5" fill="#5a3410"/><rect x="315" y="676.0" width="12" height="4.5" fill="#5a3410"/>
<rect x="298" y="670.0" width="12" height="4.5" fill="#5a3410"/><rect x="315" y="670.0" width="12" height="4.5" fill="#5a3410"/>
<rect x="298" y="664.0" width="12" height="4.5" fill="#5a3410"/><rect x="315" y="664.0" width="12" height="4.5" fill="#5a3410"/>
<text x="313" y="710" text-anchor="middle" font-size="13" fill="#3f7d54" font-weight="bold">臨 Lâm</text>
<text x="268" y="702" text-anchor="end" font-size="12" fill="#3f7d54" font-weight="bold">hội Sửu</text>
<text x="268" y="717" text-anchor="end" font-size="9.5" fill="#888">56217TCN–45418TCN</text>
<text x="268" y="731" text-anchor="end" font-size="10" fill="#777" font-weight="normal">地辟 · đất thành</text>
<circle cx="270" cy="520" r="46" fill="#2f6d44" fill-opacity="0.09" stroke="#2f6d44" stroke-opacity="0.45" stroke-width="1"/>
<rect x="255" y="534.0" width="30" height="4.5" fill="#5a3410"/>
<rect x="255" y="528.0" width="30" height="4.5" fill="#5a3410"/>
<rect x="255" y="522.0" width="30" height="4.5" fill="#5a3410"/>
<rect x="255" y="516.0" width="12" height="4.5" fill="#5a3410"/><rect x="272" y="516.0" width="12" height="4.5" fill="#5a3410"/>
<rect x="255" y="510.0" width="12" height="4.5" fill="#5a3410"/><rect x="272" y="510.0" width="12" height="4.5" fill="#5a3410"/>
<rect x="255" y="504.0" width="12" height="4.5" fill="#5a3410"/><rect x="272" y="504.0" width="12" height="4.5" fill="#5a3410"/>
<text x="270" y="550" text-anchor="middle" font-size="13" fill="#2f6d44" font-weight="bold">泰 Thái</text>
<text x="218" y="516" text-anchor="end" font-size="12" fill="#2f6d44" font-weight="bold">hội Dần</text>
<text x="218" y="531" text-anchor="end" font-size="9.5" fill="#888">45417TCN–34618TCN</text>
<text x="218" y="545" text-anchor="end" font-size="10" fill="#777" font-weight="normal">人生 · người/vật sinh (开物)</text>
<circle cx="313" cy="360" r="46" fill="#c9a13b" fill-opacity="0.09" stroke="#c9a13b" stroke-opacity="0.45" stroke-width="1"/>
<rect x="298" y="374.0" width="30" height="4.5" fill="#5a3410"/>
<rect x="298" y="368.0" width="30" height="4.5" fill="#5a3410"/>
<rect x="298" y="362.0" width="30" height="4.5" fill="#5a3410"/>
<rect x="298" y="356.0" width="30" height="4.5" fill="#5a3410"/>
<rect x="298" y="350.0" width="12" height="4.5" fill="#5a3410"/><rect x="315" y="350.0" width="12" height="4.5" fill="#5a3410"/>
<rect x="298" y="344.0" width="12" height="4.5" fill="#5a3410"/><rect x="315" y="344.0" width="12" height="4.5" fill="#5a3410"/>
<text x="313" y="390" text-anchor="middle" font-size="13" fill="#c9a13b" font-weight="bold">大壯 Đại Tráng</text>
<text x="268" y="330" text-anchor="end" font-size="12" fill="#c9a13b" font-weight="bold">hội Mão</text>
<text x="268" y="345" text-anchor="end" font-size="9.5" fill="#888">34617TCN–23818TCN</text>
<circle cx="430" cy="243" r="46" fill="#c9a13b" fill-opacity="0.09" stroke="#c9a13b" stroke-opacity="0.45" stroke-width="1"/>
<rect x="415" y="256.8718707889796" width="30" height="4.5" fill="#5a3410"/>
<rect x="415" y="250.8718707889796" width="30" height="4.5" fill="#5a3410"/>
<rect x="415" y="244.8718707889796" width="30" height="4.5" fill="#5a3410"/>
<rect x="415" y="238.8718707889796" width="30" height="4.5" fill="#5a3410"/>
<rect x="415" y="232.8718707889796" width="30" height="4.5" fill="#5a3410"/>
<rect x="415" y="226.8718707889796" width="12" height="4.5" fill="#5a3410"/><rect x="433" y="226.8718707889796" width="12" height="4.5" fill="#5a3410"/>
<text x="430" y="273" text-anchor="middle" font-size="13" fill="#c9a13b" font-weight="bold">夬 Quải</text>
<text x="404" y="194" text-anchor="end" font-size="12" fill="#c9a13b" font-weight="bold">hội Thìn</text>
<text x="404" y="209" text-anchor="end" font-size="9.5" fill="#888">23817TCN–13018TCN</text>
<circle cx="590" cy="200" r="46" fill="#c0392b" fill-opacity="0.09" stroke="#c0392b" stroke-opacity="0.45" stroke-width="1"/>
<rect x="575" y="214.0" width="30" height="4.5" fill="#5a3410"/>
<rect x="575" y="208.0" width="30" height="4.5" fill="#5a3410"/>
<rect x="575" y="202.0" width="30" height="4.5" fill="#5a3410"/>
<rect x="575" y="196.0" width="30" height="4.5" fill="#5a3410"/>
<rect x="575" y="190.0" width="30" height="4.5" fill="#5a3410"/>
<rect x="575" y="184.0" width="30" height="4.5" fill="#5a3410"/>
<text x="590" y="230" text-anchor="middle" font-size="13" fill="#c0392b" font-weight="bold">乾 Càn</text>
<text x="590" y="144" text-anchor="middle" font-size="12" fill="#c0392b" font-weight="bold">hội Tỵ</text>
<text x="590" y="159" text-anchor="middle" font-size="9.5" fill="#888">13017TCN–2218TCN</text>
<text x="590" y="173" text-anchor="middle" font-size="10" fill="#777" font-weight="normal">đỉnh · cực dương</text>
<circle cx="750" cy="243" r="46" fill="#c0392b" fill-opacity="0.16" stroke="#c0392b" stroke-opacity="0.9" stroke-width="2.4"/>
<rect x="735" y="256.87187078897966" width="12" height="4.5" fill="#5a3410"/><rect x="752" y="256.87187078897966" width="12" height="4.5" fill="#5a3410"/>
<rect x="735" y="250.87187078897966" width="30" height="4.5" fill="#5a3410"/>
<rect x="735" y="244.87187078897966" width="30" height="4.5" fill="#5a3410"/>
<rect x="735" y="238.87187078897966" width="30" height="4.5" fill="#5a3410"/>
<rect x="735" y="232.87187078897966" width="30" height="4.5" fill="#5a3410"/>
<rect x="735" y="226.87187078897966" width="30" height="4.5" fill="#5a3410"/>
<text x="750" y="273" text-anchor="middle" font-size="13" fill="#c0392b" font-weight="bold">姤 Cấu</text>
<text x="776" y="194" text-anchor="start" font-size="12" fill="#c0392b" font-weight="bold">hội Ngọ</text>
<text x="776" y="209" text-anchor="start" font-size="9.5" fill="#888">2217TCN–8583</text>
<text x="776" y="223" text-anchor="start" font-size="10" fill="#c0392b" font-weight="bold">★ NAY (2026) · một âm sinh</text>
<circle cx="867" cy="360" r="46" fill="#a85a3a" fill-opacity="0.09" stroke="#a85a3a" stroke-opacity="0.45" stroke-width="1"/>
<rect x="852" y="374.0" width="12" height="4.5" fill="#5a3410"/><rect x="870" y="374.0" width="12" height="4.5" fill="#5a3410"/>
<rect x="852" y="368.0" width="12" height="4.5" fill="#5a3410"/><rect x="870" y="368.0" width="12" height="4.5" fill="#5a3410"/>
<rect x="852" y="362.0" width="30" height="4.5" fill="#5a3410"/>
<rect x="852" y="356.0" width="30" height="4.5" fill="#5a3410"/>
<rect x="852" y="350.0" width="30" height="4.5" fill="#5a3410"/>
<rect x="852" y="344.0" width="30" height="4.5" fill="#5a3410"/>
<text x="867" y="390" text-anchor="middle" font-size="13" fill="#a85a3a" font-weight="bold">遯 Độn</text>
<text x="912" y="330" text-anchor="start" font-size="12" fill="#a85a3a" font-weight="bold">hội Mùi</text>
<text x="912" y="345" text-anchor="start" font-size="9.5" fill="#888">8584–19383</text>
<circle cx="910" cy="520" r="46" fill="#7a5a3a" fill-opacity="0.09" stroke="#7a5a3a" stroke-opacity="0.45" stroke-width="1"/>
<rect x="895" y="534.0" width="12" height="4.5" fill="#5a3410"/><rect x="912" y="534.0" width="12" height="4.5" fill="#5a3410"/>
<rect x="895" y="528.0" width="12" height="4.5" fill="#5a3410"/><rect x="912" y="528.0" width="12" height="4.5" fill="#5a3410"/>
<rect x="895" y="522.0" width="12" height="4.5" fill="#5a3410"/><rect x="912" y="522.0" width="12" height="4.5" fill="#5a3410"/>
<rect x="895" y="516.0" width="30" height="4.5" fill="#5a3410"/>
<rect x="895" y="510.0" width="30" height="4.5" fill="#5a3410"/>
<rect x="895" y="504.0" width="30" height="4.5" fill="#5a3410"/>
<text x="910" y="550" text-anchor="middle" font-size="13" fill="#7a5a3a" font-weight="bold">否 Bĩ</text>
<text x="962" y="516" text-anchor="start" font-size="12" fill="#7a5a3a" font-weight="bold">hội Thân</text>
<text x="962" y="531" text-anchor="start" font-size="9.5" fill="#888">19384–30183</text>
<text x="962" y="545" text-anchor="start" font-size="10" fill="#777" font-weight="normal">天地 bất giao (否)</text>
<circle cx="867" cy="680" r="46" fill="#5a4a6a" fill-opacity="0.09" stroke="#5a4a6a" stroke-opacity="0.45" stroke-width="1"/>
<rect x="852" y="694.0000000000001" width="12" height="4.5" fill="#5a3410"/><rect x="870" y="694.0000000000001" width="12" height="4.5" fill="#5a3410"/>
<rect x="852" y="688.0000000000001" width="12" height="4.5" fill="#5a3410"/><rect x="870" y="688.0000000000001" width="12" height="4.5" fill="#5a3410"/>
<rect x="852" y="682.0000000000001" width="12" height="4.5" fill="#5a3410"/><rect x="870" y="682.0000000000001" width="12" height="4.5" fill="#5a3410"/>
<rect x="852" y="676.0000000000001" width="12" height="4.5" fill="#5a3410"/><rect x="870" y="676.0000000000001" width="12" height="4.5" fill="#5a3410"/>
<rect x="852" y="670.0000000000001" width="30" height="4.5" fill="#5a3410"/>
<rect x="852" y="664.0000000000001" width="30" height="4.5" fill="#5a3410"/>
<text x="867" y="710" text-anchor="middle" font-size="13" fill="#5a4a6a" font-weight="bold">觀 Quán</text>
<text x="912" y="702" text-anchor="start" font-size="12" fill="#5a4a6a" font-weight="bold">hội Dậu</text>
<text x="912" y="717" text-anchor="start" font-size="9.5" fill="#888">30184–40983</text>
<circle cx="750" cy="797" r="46" fill="#3a3a5a" fill-opacity="0.09" stroke="#3a3a5a" stroke-opacity="0.45" stroke-width="1"/>
<rect x="735" y="811.1281292110203" width="12" height="4.5" fill="#5a3410"/><rect x="752" y="811.1281292110203" width="12" height="4.5" fill="#5a3410"/>
<rect x="735" y="805.1281292110203" width="12" height="4.5" fill="#5a3410"/><rect x="752" y="805.1281292110203" width="12" height="4.5" fill="#5a3410"/>
<rect x="735" y="799.1281292110203" width="12" height="4.5" fill="#5a3410"/><rect x="752" y="799.1281292110203" width="12" height="4.5" fill="#5a3410"/>
<rect x="735" y="793.1281292110203" width="12" height="4.5" fill="#5a3410"/><rect x="752" y="793.1281292110203" width="12" height="4.5" fill="#5a3410"/>
<rect x="735" y="787.1281292110203" width="12" height="4.5" fill="#5a3410"/><rect x="752" y="787.1281292110203" width="12" height="4.5" fill="#5a3410"/>
<rect x="735" y="781.1281292110203" width="30" height="4.5" fill="#5a3410"/>
<text x="750" y="827" text-anchor="middle" font-size="13" fill="#3a3a5a" font-weight="bold">剝 Bác</text>
<text x="776" y="838" text-anchor="start" font-size="12" fill="#3a3a5a" font-weight="bold">hội Tuất</text>
<text x="776" y="853" text-anchor="start" font-size="9.5" fill="#888">40984–51783</text>
<text x="776" y="867" text-anchor="start" font-size="10" fill="#777" font-weight="normal">物闭 · đóng vật (闭物)</text>
<circle cx="590" cy="840" r="46" fill="#2f3a5a" fill-opacity="0.09" stroke="#2f3a5a" stroke-opacity="0.45" stroke-width="1"/>
<rect x="575" y="854.0" width="12" height="4.5" fill="#5a3410"/><rect x="592" y="854.0" width="12" height="4.5" fill="#5a3410"/>
<rect x="575" y="848.0" width="12" height="4.5" fill="#5a3410"/><rect x="592" y="848.0" width="12" height="4.5" fill="#5a3410"/>
<rect x="575" y="842.0" width="12" height="4.5" fill="#5a3410"/><rect x="592" y="842.0" width="12" height="4.5" fill="#5a3410"/>
<rect x="575" y="836.0" width="12" height="4.5" fill="#5a3410"/><rect x="592" y="836.0" width="12" height="4.5" fill="#5a3410"/>
<rect x="575" y="830.0" width="12" height="4.5" fill="#5a3410"/><rect x="592" y="830.0" width="12" height="4.5" fill="#5a3410"/>
<rect x="575" y="824.0" width="12" height="4.5" fill="#5a3410"/><rect x="592" y="824.0" width="12" height="4.5" fill="#5a3410"/>
<text x="590" y="870" text-anchor="middle" font-size="13" fill="#2f3a5a" font-weight="bold">坤 Khôn</text>
<text x="590" y="888" text-anchor="middle" font-size="12" fill="#2f3a5a" font-weight="bold">hội Hợi</text>
<text x="590" y="903" text-anchor="middle" font-size="9.5" fill="#888">51784–62583</text>
<text x="590" y="917" text-anchor="middle" font-size="10" fill="#777" font-weight="normal">混沌 · hỗn mang → tái sinh</text>
<line x1="590.0" y1="520" x2="705" y2="321" stroke="#c0392b" stroke-width="2.5" marker-end="url(#a)"/>
<defs><marker id="a" markerWidth="9" markerHeight="9" refX="6" refY="3" orient="auto"><path d="M0,0 L7,3 L0,6 z" fill="#c0392b"/></marker></defs>
<circle cx="590.0" cy="520" r="58" fill="#fbf7ef" stroke="#c9a13b"/>
<text x="590.0" y="514" text-anchor="middle" font-size="15" fill="#7a3410" font-weight="bold">一元</text>
<text x="590.0" y="532" text-anchor="middle" font-size="11" fill="#888">129.600 năm</text>
<text x="590.0" y="548" text-anchor="middle" font-size="9.5" fill="#aaa">67017 TCN→62583 CN</text>
<text x="590.0" y="976" text-anchor="middle" font-size="13.5" fill="#2f5d8a">Ta đang ở <tspan fill="#c0392b" font-weight="bold">hội Ngọ</tspan> — vừa qua đỉnh (Càn), một âm mới sinh (Cấu): "vương giáng nhi bá". Còn ~39.000 năm tới 闭物.</text>
<text x="590.0" y="998" text-anchor="middle" font-size="12" fill="#999">"Khang Tiết vốn là học KINH THẾ — coi nó chỉ để đoán việc tương lai là làm NHỎ học vấn ông" (尹和靖) · thiên cơ để HÀNH, không để bói</text>
</svg>